# xmcd
#
# Track frame offsets:
#	150
#	18776
#	29947
#	50659
#	80286
#	93328
#	106785
#	125330
#	135409
#	157102
#	167518
#	178700
#	199704
#	211958
#	226214
#	239645
#	262387
#	272431
#	301453
#	318213
#
# Disc length: 4487
#
# Revision: 2
# Processed by: cddbd v1.5.1PL0 Copyright (c) Steve Scherf et al.
# Submitted via: audiograbber 1.81.03
# Normalized: r1:DSETVAR1
#
DISCID=11118514
DTITLE=Various Artist - The Blues Collection
DYEAR=2000
DGENRE=Blues
TTITLE0=John Mayall's Bluesbreakers - I ain't got you
TTITLE1=John Lee Hooker - Boom Boom
TTITLE2=Lightnin Hopkins - Morning Blues
TTITLE3=Walter Wolfman Washington - Get on up
TTITLE4=Elmore James - Dust my broom
TTITLE5=T-Bone Walker - T-Bone Shuffle
TTITLE6=Roebrt Cray - The Score
TTITLE7=Jimmy Reed - Ain't that loving you baby
TTITLE8=Albert King - Stormy Monday
TTITLE9=Memphis Slim - Gotta find my Baby
TTITLE10=Otis Rush - Violent Lane
TTITLE11=Jimmy Witherspoon - See See Rider
TTITLE12=Magic Sam - 21 Days in Jail
TTITLE13=Bessie Smith - St. Louis Blues
TTITLE14=Eddie Taylor - Big Town Playboy
TTITLE15=Champion Jack Dupree - No Tomorrow
TTITLE16=Robert Johnson - Milkcow's calf Bles
TTITLE17=Bobby Blue Band - Mel's Groove
TTITLE18=B.B. King - Ain't nobody home
TTITLE19=Muddy Waters - Corinne Corrina
EXTD=
EXTT0=
EXTT1=
EXTT2=
EXTT3=
EXTT4=
EXTT5=
EXTT6=
EXTT7=
EXTT8=
EXTT9=
EXTT10=
EXTT11=
EXTT12=
EXTT13=
EXTT14=
EXTT15=
EXTT16=
EXTT17=
EXTT18=
EXTT19=
PLAYORDER=
